<?xml version="1.0" encoding="utf-8"?>
<!-- Generator: Adobe Illustrator 29.3.1, SVG Export Plug-In . SVG Version: 9.03 Build 55982)  -->
<svg version="1.0" id="Layer_1" xmlns="http://www.w3.org/2000/svg" xmlns:xlink="http://www.w3.org/1999/xlink" x="0px" y="0px"
	 viewBox="0 0 1080 383.3" enable-background="new 0 0 1080 383.3" xml:space="preserve">
<g>
	<g>
		<g>
			<path d="M331.1,252.2c-8,0-14.7-0.4-20.3-1.2c-5.6-0.8-10.1-2.4-13.5-4.9c-3.4-2.5-5.9-6.2-7.5-11.2c-1.6-5-2.3-11.6-2.3-20
				c0-8.1,0.8-14.5,2.3-19.4c1.6-4.9,4.1-8.5,7.5-11c3.4-2.5,7.9-4.1,13.5-4.9c5.6-0.8,12.3-1.2,20.3-1.2c7.6,0,14.1,0.6,19.3,1.7
				c5.3,1.2,9.4,3.7,12.4,7.7v-31.8h11.9v94.9h-11.9v-8.2c-3,4-7.1,6.6-12.4,7.8C345.1,251.6,338.7,252.2,331.1,252.2z M362.8,214.8
				c0-5.9-0.4-10.6-1.2-14.1c-0.8-3.5-2.3-6.2-4.6-8c-2.2-1.8-5.4-3-9.6-3.6c-4.2-0.6-9.6-0.9-16.3-0.9c-7.3,0-13.1,0.3-17.4,0.9
				c-4.3,0.6-7.4,1.8-9.5,3.6c-2,1.8-3.3,4.5-3.9,8c-0.6,3.5-0.9,8.3-0.9,14.1c0,6.1,0.3,11,0.9,14.6c0.6,3.7,1.9,6.4,3.9,8.2
				c2,1.8,5.2,3,9.5,3.6c4.3,0.6,10.1,0.9,17.4,0.9c6.7,0,12.2-0.3,16.3-0.9c4.2-0.6,7.4-1.8,9.6-3.6c2.2-1.8,3.7-4.6,4.6-8.2
				C362.3,225.8,362.8,220.9,362.8,214.8z"/>
			<path d="M428.3,252.2c-8.5,0-15.6-0.4-21.1-1.3c-5.5-0.9-9.7-2.8-12.4-5.8c-2.7-3-4-7.7-4-14c0-6.5,1.3-11.2,3.8-14.2
				c2.5-3,6.5-5,12-5.9c5.5-0.9,12.7-1.4,21.7-1.4c7.2,0,13.3,0.2,18.2,0.5c4.9,0.3,9.3,0.9,13.2,1.7c-0.1-5.5-0.5-9.8-1.1-12.9
				c-0.7-3.2-1.9-5.5-3.7-7c-1.8-1.5-4.5-2.5-7.9-2.9c-3.5-0.4-8.1-0.6-13.9-0.6c-6.6,0-11.8,0.1-15.5,0.4c-3.7,0.3-6.4,0.8-8.1,1.5
				c-1.7,0.7-2.7,1.8-3.2,3.2c-0.4,1.4-0.6,3.2-0.6,5.4h-11.9c0-4.4,0.6-8,1.8-10.8c1.2-2.7,3.3-4.8,6.2-6.2c2.9-1.4,6.9-2.3,12-2.8
				c5.1-0.5,11.5-0.7,19.2-0.7c8.3,0,15,0.5,20.1,1.6c5.1,1.1,9,3,11.6,5.8c2.7,2.8,4.4,6.7,5.4,11.6c0.9,5,1.4,11.4,1.4,19.3v34.2
				h-11.9v-4.9c-1.4,1.5-3.3,2.7-5.8,3.6c-2.5,0.9-5.8,1.6-9.9,2C439.9,251.9,434.6,252.2,428.3,252.2z M428.3,242.5
				c7,0,12.7-0.1,16.9-0.2c4.2-0.2,7.3-0.6,9.4-1.4c2.1-0.7,3.4-1.9,4.1-3.6c0.7-1.6,1-4,1-6.9v-10.9l-31.4-0.4
				c-5.6-0.1-10,0-13.4,0.2c-3.4,0.2-6,0.7-7.8,1.5c-1.8,0.8-3,2-3.6,3.6c-0.6,1.6-0.9,3.8-0.9,6.6c0,2.7,0.3,4.8,0.9,6.4
				c0.6,1.6,1.8,2.7,3.6,3.5c1.8,0.7,4.4,1.2,7.8,1.4C418.2,242.4,422.7,242.5,428.3,242.5z"/>
			<path d="M520,250.8c-7.3,0-13.1-0.7-17.4-2.2c-4.4-1.5-7.5-4.1-9.5-7.8c-2-3.7-2.9-9-2.9-15.7v-64.9H502v19.5h43.8v9.8H502v35.7
				c0,4.6,0.4,8.1,1.3,10.3c0.8,2.3,2.6,3.7,5.1,4.4c2.6,0.7,6.4,1.1,11.6,1.1c4.6,0,8.2-0.1,10.8-0.4c2.6-0.3,4.5-1.1,5.8-2.3
				c1.2-1.3,2-3.3,2.3-6.2c0.3-2.9,0.5-6.9,0.5-12.2h10.5c0,6.8-0.4,12.3-1.3,16.4c-0.8,4.1-2.3,7.2-4.5,9.3
				c-2.2,2.1-5.2,3.5-9.1,4.2C531.2,250.4,526.1,250.8,520,250.8z"/>
			<path d="M600.8,252.2c-8.5,0-15.6-0.4-21.1-1.3c-5.5-0.9-9.7-2.8-12.4-5.8c-2.7-3-4-7.7-4-14c0-6.5,1.3-11.2,3.8-14.2
				c2.5-3,6.5-5,12-5.9c5.5-0.9,12.7-1.4,21.7-1.4c7.3,0,13.3,0.2,18.2,0.5c4.9,0.3,9.3,0.9,13.2,1.7c-0.1-5.5-0.5-9.8-1.1-12.9
				c-0.7-3.2-1.9-5.5-3.7-7c-1.8-1.5-4.5-2.5-7.9-2.9c-3.5-0.4-8.1-0.6-13.9-0.6c-6.6,0-11.7,0.1-15.5,0.4c-3.7,0.3-6.4,0.8-8.1,1.5
				c-1.7,0.7-2.7,1.8-3.2,3.2c-0.4,1.4-0.6,3.2-0.6,5.4h-11.9c0-4.4,0.6-8,1.8-10.8c1.2-2.7,3.3-4.8,6.2-6.2c2.9-1.4,6.9-2.3,12-2.8
				c5.1-0.5,11.5-0.7,19.2-0.7c8.3,0,15,0.5,20.1,1.6s9,3,11.6,5.8c2.7,2.8,4.4,6.7,5.4,11.6c0.9,5,1.4,11.4,1.4,19.3v34.2h-11.9
				v-4.9c-1.4,1.5-3.3,2.7-5.8,3.6c-2.5,0.9-5.8,1.6-9.9,2C612.4,251.9,607.2,252.2,600.8,252.2z M600.8,242.5
				c7,0,12.7-0.1,16.9-0.2c4.2-0.2,7.3-0.6,9.4-1.4c2.1-0.7,3.4-1.9,4.1-3.6c0.7-1.6,1-4,1-6.9v-10.9l-31.4-0.4
				c-5.6-0.1-10,0-13.4,0.2c-3.4,0.2-6,0.7-7.8,1.5c-1.8,0.8-3,2-3.6,3.6c-0.6,1.6-0.9,3.8-0.9,6.6c0,2.7,0.3,4.8,0.9,6.4
				c0.6,1.6,1.8,2.7,3.6,3.5c1.8,0.7,4.4,1.2,7.8,1.4C590.8,242.4,595.3,242.5,600.8,242.5z"/>
			<path d="M660.9,250.8v-71.2h11.9v9.8c1.3-2.1,2.6-3.9,4-5.3c1.3-1.4,3.1-2.5,5.3-3.3c2.2-0.8,5.1-1.4,8.8-1.8
				c3.7-0.3,8.6-0.5,14.6-0.5v9.9c-8.2,0-14.5,0.3-18.9,0.9c-4.5,0.6-7.7,1.6-9.6,2.9c-1.9,1.4-3.1,3.3-3.5,5.7
				c-0.4,2.4-0.6,5.5-0.6,9.3v43.5H660.9z"/>
			<path d="M802.1,229.7c0,5.3-0.8,9.5-2.4,12.5s-4,5.3-7.3,6.7c-3.3,1.4-7.4,2.3-12.5,2.7c-5,0.4-11,0.6-18,0.6
				c-7.9,0-14.7-0.4-20.2-1.2c-5.5-0.8-10-2.4-13.4-4.9c-3.4-2.5-5.9-6.2-7.4-11.2c-1.5-5-2.3-11.6-2.3-20c0-8.1,0.8-14.5,2.3-19.4
				c1.5-4.9,3.9-8.5,7.3-11c3.4-2.5,7.8-4.1,13.3-4.9c5.5-0.8,12.2-1.2,20.2-1.2c9.1,0,16.6,0.6,22.6,1.9c6,1.3,10.4,3.7,13.4,7.3
				c2.9,3.6,4.4,8.8,4.4,15.8v15.3h-71.5c0,5.3,0.4,9.5,1.1,12.7c0.7,3.2,2.1,5.6,4.2,7.2c2.1,1.6,5.2,2.7,9.4,3.2
				c4.2,0.5,9.8,0.8,16.7,0.8c6.3,0,11.3-0.1,15.2-0.4c3.9-0.2,6.8-0.8,8.8-1.6c2-0.8,3.3-2.1,4-3.8c0.7-1.7,1.1-4,1.1-6.8H802.1z
				 M761.7,188.1c-6.7,0-12.1,0.2-16.2,0.7c-4.1,0.5-7.2,1.5-9.4,2.9c-2.1,1.4-3.6,3.5-4.4,6.3c-0.8,2.8-1.2,6.5-1.2,11.1h60.2v-5.9
				c0-3-0.3-5.4-1-7.4c-0.7-2-2-3.5-4-4.6c-2-1.1-4.9-1.9-8.7-2.4C773.1,188.4,768,188.1,761.7,188.1z"/>
			<path d="M898.9,229.7c0,5.3-0.8,9.5-2.4,12.5s-4,5.3-7.3,6.7c-3.3,1.4-7.4,2.3-12.5,2.7c-5,0.4-11,0.6-18,0.6
				c-7.9,0-14.7-0.4-20.2-1.2c-5.5-0.8-10-2.4-13.4-4.9c-3.4-2.5-5.9-6.2-7.4-11.2c-1.5-5-2.3-11.6-2.3-20c0-8.1,0.8-14.5,2.3-19.4
				c1.5-4.9,3.9-8.5,7.3-11c3.4-2.5,7.8-4.1,13.3-4.9c5.5-0.8,12.2-1.2,20.2-1.2c9.1,0,16.6,0.6,22.6,1.9c6,1.3,10.4,3.7,13.4,7.3
				c2.9,3.6,4.4,8.8,4.4,15.8v15.3h-71.5c0,5.3,0.4,9.5,1.1,12.7c0.7,3.2,2.1,5.6,4.2,7.2c2.1,1.6,5.2,2.7,9.4,3.2
				c4.2,0.5,9.8,0.8,16.7,0.8c6.3,0,11.3-0.1,15.2-0.4c3.9-0.2,6.8-0.8,8.8-1.6c2-0.8,3.3-2.1,4-3.8c0.7-1.7,1.1-4,1.1-6.8H898.9z
				 M858.5,188.1c-6.7,0-12.1,0.2-16.2,0.7c-4.1,0.5-7.2,1.5-9.4,2.9c-2.1,1.4-3.6,3.5-4.4,6.3c-0.8,2.8-1.2,6.5-1.2,11.1h60.2v-5.9
				c0-3-0.3-5.4-1-7.4c-0.7-2-2-3.5-4-4.6c-2-1.1-4.9-1.9-8.7-2.4C869.9,188.4,864.8,188.1,858.5,188.1z"/>
			<path d="M918.2,250.8v-94.9H930v94.9H918.2z"/>
		</g>
		<g>
			<path d="M940.4,250.8v-5.5h5.5v5.5H940.4z"/>
			<path d="M970.5,251.4c-3.9,0-7.2-0.2-9.7-0.6c-2.6-0.4-4.5-1.3-5.7-2.7c-1.2-1.4-1.9-3.5-1.9-6.5c0-3,0.6-5.2,1.8-6.6
				c1.2-1.4,3-2.3,5.6-2.7c2.5-0.4,5.9-0.6,10-0.6c3.3,0,6.1,0.1,8.4,0.2c2.3,0.2,4.3,0.4,6.1,0.8c0-2.5-0.2-4.5-0.5-6
				c-0.3-1.5-0.9-2.5-1.7-3.2c-0.8-0.7-2.1-1.2-3.7-1.4c-1.6-0.2-3.7-0.3-6.4-0.3c-3,0-5.4,0.1-7.1,0.2c-1.7,0.1-3,0.4-3.7,0.7
				c-0.8,0.3-1.3,0.8-1.5,1.5c-0.2,0.6-0.3,1.5-0.3,2.5h-5.5c0-2.1,0.3-3.7,0.8-5c0.6-1.3,1.5-2.2,2.9-2.8c1.3-0.6,3.2-1.1,5.5-1.3
				c2.3-0.2,5.3-0.3,8.9-0.3c3.8,0,6.9,0.2,9.3,0.7c2.3,0.5,4.1,1.4,5.4,2.7c1.2,1.3,2.1,3.1,2.5,5.4c0.4,2.3,0.6,5.3,0.6,8.9v15.8
				H985v-2.2c-0.6,0.7-1.5,1.2-2.7,1.7c-1.1,0.4-2.7,0.7-4.5,0.9C975.9,251.3,973.4,251.4,970.5,251.4z M970.5,247
				c3.2,0,5.8,0,7.8-0.1c1.9-0.1,3.4-0.3,4.3-0.6c1-0.3,1.6-0.9,1.9-1.7c0.3-0.8,0.5-1.8,0.5-3.2v-5l-14.5-0.2c-2.6,0-4.6,0-6.2,0.1
				c-1.6,0.1-2.8,0.3-3.6,0.7c-0.8,0.4-1.4,0.9-1.6,1.7c-0.3,0.7-0.4,1.8-0.4,3c0,1.2,0.1,2.2,0.4,2.9c0.3,0.7,0.8,1.3,1.6,1.6
				c0.8,0.3,2,0.6,3.6,0.7C965.9,246.9,967.9,247,970.5,247z"/>
			<path d="M997.6,212.5V207h5.5v5.5H997.6z M997.6,250.8v-31h5.5v31H997.6z"/>
		</g>
	</g>
	<g>
		<path fill="#2563EB" d="M98.8,243.5v-77.7h-6.3c-8.6,0-15.6,7-15.6,15.6v87.5c0,8.6,7,15.6,15.6,15.6H180c8.6,0,15.6-7,15.6-15.6
			v-8.3h-79.7C104.8,260.7,98.8,252.2,98.8,243.5z"/>
		<path fill="#2563EB" d="M193.1,209.3L164,227.7c-3.4,2.2-7.4,3.3-11.4,3.3c0,0,0,0,0,0c-11.8,0-21.5-9.6-21.5-21.5v-40.3v-28h-4.6
			c-8.3,0-15.1,6.8-15.1,15.1v12.9v62.6c0.2,10.2,7.8,16.5,16.8,16.2h64.9h0c13.9,0,25.1-11.2,25.1-25.1v-29.5L193.1,209.3z"/>
		<path fill="#2563EB" d="M242.9,150.2c-1-1.6-2.3-2.9-3.9-3.8l0,0l-8-4.6l-23.7-13.7l-48.5-28c-1.5-0.9-3-1.3-4.7-1.3
			c-5.4,0-9.9,4.4-9.9,9.9v19.5v5.9v5.9v28v40.3c0,5.3,4.3,9.7,9.7,9.7c0,0,0,0,0,0c1.8,0,3.6-0.5,5.1-1.5l35.4-22.4l25.1-15.9
			l5.9-3.7l5.9-3.7l8.1-5.1c2.6-1.6,4.3-4.1,5-7C244.9,155.7,244.4,152.7,242.9,150.2z"/>
	</g>
</g>
</svg>
