<?xml version="1.0" encoding="utf-8"?>
<!-- Generator: Adobe Illustrator 29.3.1, SVG Export Plug-In . SVG Version: 9.03 Build 55982)  -->
<svg version="1.0" id="Layer_1" xmlns="http://www.w3.org/2000/svg" xmlns:xlink="http://www.w3.org/1999/xlink" x="0px"
	y="0px" viewBox="0 0 974.1 537.9" enable-background="new 0 0 974.1 537.9" xml:space="preserve">
	<g>
		<defs>
			<rect id="SVGID_1_" width="974.1" height="537.9" />
		</defs>
		<clipPath id="SVGID_00000027596231911020498860000004117227559555970959_">
			<use xlink:href="#SVGID_1_" overflow="visible" />
		</clipPath>
		<g clip-path="url(#SVGID_00000027596231911020498860000004117227559555970959_)">
			<rect x="-24" y="-91.1" fill="#FFFFFF" width="1082.6" height="720" />
			<path fill="#7DACFF" d="M1299.2-472.6v0.4c-20.4,16.1-41.3,31.9-62.2,47.7c-68.8,52-136.8,103.4-184.1,163.7
			C943.8-122,944.6,63.8,1299.2,411.4v0.4c-355-348-355.8-533.9-246.5-672.9c47.4-60.3,115.4-111.7,184.2-163.7
			C1257.8-440.6,1278.7-456.5,1299.2-472.6 M1299.2-486.3v0.4c-23.9,20.6-48.7,40.7-73.4,60.9c-68.7,55.9-137.3,111.6-185.4,175.4
			C927.6-99.9,927.1,94.8,1299.2,441.9v0.4c-372.5-347.4-372-542.2-259-692.1c48.1-63.9,116.7-119.6,185.4-175.5
			C1250.4-445.5,1275.3-465.7,1299.2-486.3z M1299.2-502.5v0.4c-27,25.3-55.6,50.2-84.3,75.1c-69.1,60.1-138.5,120.5-187.5,188.6
			c-116,161.1-117.3,365.1,271.8,709.2v0.4C909.7,126.9,911.1-77.3,1027.2-238.5c49-68.1,118.5-128.5,187.6-188.7
			C1243.5-452.1,1272.1-477.1,1299.2-502.5z M1299.2-521v0.4c-29.8,30.3-62.1,60.2-94.5,90.3c-69.9,64.8-140.8,130.5-190.9,203.6
			C895.3-53.9,893.7,159.9,1299.2,498.5v0.4C893.3,160.1,894.9-53.9,1013.5-226.9c50.1-73.1,121.1-138.8,191-203.6
			C1237-460.7,1269.3-490.7,1299.2-521z M1291.3-533.4h0.4c-30.2,32.6-63.2,65.1-96.7,98c-71.2,70-144.3,141.9-195.7,220.9
			C879.2-29.6,878.2,194.3,1299.2,524.6v0.4C877.8,194.4,878.8-29.7,999.1-214.7c51.4-79,124.5-150.9,195.7-221
			C1228.2-468.5,1261.1-500.9,1291.3-533.4z M1271.3-533.4h0.4c-26.9,30-56,60.2-85.6,90.9c-73.2,76-149.3,155.1-202.2,241.3
			C863-4.2,863.7,229.9,1299.2,549.1v0.4C863.4,230.1,862.7-4.2,983.7-201.4c52.9-86.2,129-165.3,202.2-241.3
			C1215.4-473.3,1244.4-503.5,1271.3-533.4z M1251.2-533.4h0.4c-23.3,26.7-48.1,53.9-73.5,81.6c-75.8,82.9-156,170.6-210.7,265.4
			C847,22.8,850.7,267,1299.2,572v0.4c-448.9-305.2-452.6-549.6-332-758.9c54.7-94.9,134.9-182.6,210.7-265.5
			C1203.2-479.7,1228-506.8,1251.2-533.4z M1231.1-533.4h0.4c-19.2,22.7-39.5,45.9-60.2,69.7C1092.1-373,1006.6-275,949.9-169.5
			C831,51.6,839.1,305.4,1299.2,593.2v0.4c-460.4-288-468.6-541.9-349.6-763.2c56.7-105.5,142.3-203.5,221.5-294.3
			C1191.7-487.6,1211.9-510.8,1231.1-533.4z M1210.9-533.4h0.4c-14.6,17.8-29.8,36-45.4,54.6c-83.4,99.8-176,210.4-234.9,328.7
			c-115.8,232.7-101.5,495,368.1,762.6v0.4c-470-267.7-484.4-530.2-368.4-763.1c58.9-118.4,151.5-229,234.9-328.8
			C1181.2-497.6,1196.4-515.7,1210.9-533.4z M1190.7-533.4h0.4c-9.4,11.7-18.9,23.6-28.7,35.7c-88.5,109.8-190.1,236-251.4,370.1
			c-110.5,241.9-89.4,509.4,378.2,752.4h-0.7c-467.3-243-488.4-510.5-377.8-752.5c61.3-134.1,163-260.3,251.4-370.2
			C1171.9-510,1181.4-521.8,1190.7-533.4z M1170.5-533.4h0.4c-3.1,4-6.3,8-9.4,12.1C1067.3-400.6,953.6-255,890-101.6
			c-101.9,245.8-75.3,511.4,365.5,726.3h-0.7c-440.5-214.9-467-480.6-365.1-726.4c63.6-153.4,177.3-299.1,271.5-419.8
			C1164.4-525.5,1167.4-529.5,1170.5-533.4z M1150.2-533.4h0.4C1052.4-404.3,931-241,868.1-71.5c-91.8,247.3-59.1,508.1,351.2,696.2
			h-0.8c-410-188.2-442.6-449-350.8-696.3C930.7-241.1,1052.1-404.3,1150.2-533.4z M1129.9-533.4h0.4
			C1029.2-397.2,904.9-218.8,845.6-36.9c-80.2,246-41.5,498.5,334.6,661.7h-0.8C803.7,461.4,765,209,845.3-37
			C904.6-218.9,1028.9-397.2,1129.9-533.4z M1109.6-533.4h0.4C995.7-375.7,853.4-156.3,809.5,56.7
			c-45.9,222.4,15.5,437.8,328.1,568.1h-0.8C824.6,494.3,763.3,279,809.2,56.6C853.1-156.3,995.3-375.7,1109.6-533.4z M1089.3-533.4
			h0.4C975.7-372.7,836-142.7,793.7,76.5C751,298,807.8,508.3,1091.4,624.7h-0.8C807.4,508.2,750.7,297.9,793.4,76.4
			C835.7-142.7,975.4-372.7,1089.3-533.4z M1068.9-533.4h0.4C956-370.1,819.2-130.2,778.2,94.7c-16,87.7-17.4,173.1,2.8,250.8
			c20.2,77.7,62.1,147.7,132.8,204.6c35.3,28.4,77.7,53.5,128.1,74.7h-0.8c-50.2-21.1-92.4-46.1-127.5-74.4
			c-70.7-56.9-112.6-127-132.9-204.7c-20.3-77.8-18.8-163.2-2.9-251C818.9-130.3,955.7-370.1,1068.9-533.4z M1048.5-533.4h0.4
			c-118.2,174.1-260,440.8-291.4,680.8c-10.8,82.3-8.6,161.5,12,232.8C790,451.4,829,514.6,891.8,565.2c28,22.5,60.7,42.5,98.6,59.6
			h-0.8c-37.7-17-70.2-36.9-98-59.3c-62.8-50.6-101.8-113.9-122.5-185.2c-20.6-71.3-22.8-150.5-12-232.9
			C788.5-92.7,930.3-359.3,1048.5-533.4z M1028-533.4h0.4C944.3-406.9,849.3-228.8,791.1-47.7c-43.5,135.3-66.6,272.3-49.3,390.8
			c17.3,118.4,74.9,218.4,192.7,279.5c1.4,0.7,2.8,1.4,4.2,2.1H938c-1.2-0.6-2.4-1.2-3.6-1.9c-117.9-61.2-175.6-161.2-192.9-279.7
			c-17.3-118.5,5.7-255.6,49.3-391C849-228.9,943.9-406.9,1028-533.4z M1007.6-533.4h0.4C919.8-398.2,821.1-201.1,765.4-4.6
			c-37.9,133.8-55.8,267.4-36.8,381.1c17.6,104.8,66.5,192.7,160.2,248.3h-0.6c-93.5-55.6-142.4-143.5-159.9-248.2
			c-19-113.7-1.1-247.3,36.8-381.2C820.8-201.2,919.5-398.1,1007.6-533.4z M987.1-533.4h0.4C895.3-389.2,793-171.6,740.8,40.5
			c-32.4,131.6-45.5,261.1-24.9,369.6c16.9,89.1,56.5,164.1,126.8,214.6h-0.5C772,574.3,732.4,499.3,715.5,410.2
			c-20.6-108.6-7.5-238.1,24.9-369.8C792.7-171.6,895-389.1,987.1-533.4z M966.6-533.4h0.4C870.9-380.1,765.3-140.6,717.3,86.9
			c-27.2,128.8-35.9,253.8-14.1,357c15.6,73.4,46.6,135.8,97.5,180.8h-0.5c-50.8-45-81.8-107.4-97.3-180.7
			C681.1,340.8,689.8,215.7,717,86.9C765-140.6,870.5-380.1,966.6-533.4z M1299.2,380.1C961.9,33.7,959.7-143.9,1064.9-272.6
			c46.7-57.1,114.5-104.6,183.6-153c16.9-11.8,33.9-23.7,50.7-35.8v0.4c-16.7,12-33.6,23.9-50.5,35.7
			c-69.1,48.3-136.9,95.8-183.6,152.9C960-143.8,962.3,33.6,1299.2,379.6V380.1z" />

			<radialGradient id="SVGID_00000025411654044228384400000001199700752933355951_" cx="713.066" cy="244.7163"
				r="335.7855" gradientUnits="userSpaceOnUse">
				<stop offset="0" style="stop-color:#2563EB" />
				<stop offset="1" style="stop-color:#FFFFFF;stop-opacity:0" />
			</radialGradient>
			<circle fill="url(#SVGID_00000025411654044228384400000001199700752933355951_)" cx="713.1" cy="244.7"
				r="335.8" />
		</g>
	</g>
</svg>