<?xml version="1.0" encoding="UTF-8"?>
<svg xmlns="http://www.w3.org/2000/svg" version="1.1" viewBox="0 0 1080 1080">
  <defs>
    <style>
      .cls-1 {
        fill: #2563eb;
      }
    </style>
  </defs>
  <!-- Generator: Adobe Illustrator 28.6.0, SVG Export Plug-In . SVG Version: 1.2.0 Build 709)  -->
  <g>
    <g id="Layer_1">
      <g>
        <path class="cls-1" d="M274,762.6v-333.6h-27.1c-36.9,0-67,30.1-67,67v375.7c0,36.9,30.1,67,67,67h375.7c36.9,0,67-30.1,67-67v-35.6h-342.2c-47.7.4-73.4-36.1-73.4-73.4Z"/>
        <path class="cls-1" d="M678.9,615.8l-124.9,79c-14.6,9.4-31.8,14.2-48.9,14.2h0c-50.7,0-92.3-41.2-92.3-92.3v-293.3h-19.8c-35.6,0-64.8,29.2-64.8,64.8v324.2c.9,43.8,33.5,70.8,72.1,69.6h278.7c59.7,0,107.8-48.1,107.8-107.8v-126.7l-107.8,68.3Z"/>
        <path class="cls-1" d="M892.8,362c-4.3-6.9-9.9-12.5-16.7-16.3h0l-34.3-19.8-101.8-58.8-208.2-120.2c-6.4-3.9-12.9-5.6-20.2-5.6-23.2,0-42.5,18.9-42.5,42.5v427.7c0,22.8,18.5,41.6,41.6,41.6h0c7.7,0,15.5-2.1,21.9-6.4l152-96.2,107.8-68.3,25.3-15.9,25.3-15.9,34.8-21.9c11.2-6.9,18.5-17.6,21.5-30.1,2.1-12.9,0-25.8-6.4-36.5Z"/>
      </g>
    </g>
  </g>
</svg>