<svg width="35" height="35" viewBox="0 0 35 35" fill="none" xmlns="http://www.w3.org/2000/svg">
<path d="M22.7355 11.0979V6.92711C22.7355 6.56354 22.5911 6.21486 22.334 5.95778C22.0769 5.7007 21.7282 5.55627 21.3647 5.55627H4.273C3.91196 5.56012 3.56702 5.70624 3.31309 5.9629C3.05915 6.21957 2.91673 6.56605 2.91675 6.92711V18.9584C2.91673 19.3194 3.05915 19.6659 3.31309 19.9226C3.56702 20.1792 3.91196 20.3253 4.273 20.3292H5.11883C5.2542 20.3292 5.38403 20.383 5.47975 20.4787C5.57547 20.5744 5.62925 20.7042 5.62925 20.8396V23.6396C5.62972 23.705 5.6493 23.7688 5.68557 23.8232C5.72185 23.8777 5.77323 23.9203 5.83341 23.9459C5.8974 23.9675 5.96643 23.9694 6.03149 23.9512C6.09654 23.933 6.15458 23.8955 6.198 23.8438L8.86675 20.4167C8.91354 20.3571 8.97335 20.309 9.04161 20.2762C9.10987 20.2433 9.18474 20.2265 9.2605 20.2271H12.2792L22.7355 11.0979Z" fill="#F7BF75"/>
<path d="M11.5354 9.3042C11.2323 9.30417 10.9415 9.42355 10.7259 9.63646C10.5102 9.84938 10.3871 10.1387 10.3833 10.4417V20.2709H12.2646L22.7208 11.0979V9.3042H11.5354Z" fill="#F1734D"/>
<path d="M13.6355 11.098C13.4562 11.098 13.2786 11.1335 13.1131 11.2026C12.9476 11.2716 12.7975 11.3729 12.6713 11.5003C12.5452 11.6278 12.4456 11.7791 12.3783 11.9453C12.311 12.1115 12.2774 12.2895 12.2793 12.4688V24.4417C12.2759 24.6205 12.3091 24.7981 12.3768 24.9636C12.4445 25.1291 12.5453 25.2791 12.673 25.4042C12.7975 25.5339 12.9469 25.637 13.1124 25.7072C13.2778 25.7774 13.4558 25.8132 13.6355 25.8125H25.7397C25.816 25.8083 25.8922 25.8234 25.961 25.8566C26.0299 25.8898 26.0892 25.9398 26.1335 26.0021C26.6001 26.5709 28.0147 28.3209 28.8022 29.3271C28.8456 29.3789 28.9037 29.4163 28.9687 29.4345C29.0338 29.4527 29.1028 29.4509 29.1668 29.4292C29.2259 29.4022 29.2763 29.3592 29.3124 29.3051C29.3484 29.251 29.3687 29.1879 29.371 29.123V26.25C29.3748 26.1172 29.4302 25.9911 29.5255 25.8985C29.6208 25.8059 29.7485 25.7542 29.8814 25.7542H30.7272C31.0882 25.7504 31.4332 25.6043 31.6871 25.3476C31.9411 25.0909 32.0835 24.7444 32.0835 24.3834V12.4688C32.0835 12.1077 31.9411 11.7613 31.6871 11.5046C31.4332 11.2479 31.0882 11.1018 30.7272 11.098H13.6355Z" fill="#F94060"/>
<path d="M28.8314 11.0979V23.1C28.8287 23.7962 28.5598 24.4649 28.0799 24.9693C27.5999 25.4736 26.9453 25.7753 26.2501 25.8125L26.1772 25.8854C26.1626 25.9329 26.1626 25.9837 26.1772 26.0313C26.4835 26.3958 27.9856 28.2771 28.8168 29.3125C28.8555 29.3701 28.9135 29.412 28.9803 29.4307C29.0471 29.4494 29.1184 29.4437 29.1814 29.4146C29.2404 29.3916 29.2913 29.3516 29.3276 29.2997C29.364 29.2478 29.3841 29.1863 29.3856 29.1229V26.25C29.3894 26.1172 29.4448 25.9911 29.5401 25.8985C29.6354 25.8059 29.7631 25.7541 29.896 25.7542H30.7418C31.1028 25.7503 31.4478 25.6042 31.7017 25.3475C31.9557 25.0909 32.0981 24.7444 32.0981 24.3833V12.4688C32.102 12.2889 32.0697 12.1101 32.0031 11.9429C31.9365 11.7758 31.837 11.6238 31.7105 11.4959C31.5839 11.368 31.433 11.2669 31.2666 11.1985C31.1002 11.1301 30.9217 11.0959 30.7418 11.0979H28.8314Z" fill="#D62657"/>
<path fill-rule="evenodd" clip-rule="evenodd" d="M15.6479 15.3709V15.0792C15.6479 14.8858 15.7248 14.7003 15.8615 14.5636C15.9983 14.4269 16.1837 14.35 16.3771 14.35C16.5705 14.35 16.756 14.4269 16.8927 14.5636C17.0294 14.7003 17.1063 14.8858 17.1063 15.0792V15.3709C17.3678 15.4726 17.606 15.6264 17.8063 15.823C17.9943 16.0105 18.143 16.2336 18.2438 16.4792C18.2821 16.5662 18.3027 16.66 18.3044 16.7551C18.306 16.8501 18.2887 16.9446 18.2534 17.0328C18.2181 17.1211 18.1655 17.2015 18.0987 17.2692C18.032 17.3369 17.9524 17.3906 17.8646 17.4271C17.7766 17.4657 17.6817 17.4866 17.5856 17.4884C17.4895 17.4902 17.3939 17.473 17.3045 17.4378C17.215 17.4025 17.1334 17.35 17.0644 17.2831C16.9953 17.2161 16.9402 17.1362 16.9021 17.048C16.8719 16.9798 16.8327 16.916 16.7854 16.8584C16.7341 16.8064 16.6727 16.7653 16.605 16.7377C16.5373 16.7102 16.4648 16.6966 16.3917 16.698C16.2408 16.698 16.0962 16.7579 15.9895 16.8645C15.8829 16.9712 15.8229 17.1159 15.8229 17.2667C15.8229 17.4175 15.8829 17.5622 15.9895 17.6689C16.0962 17.7755 16.2408 17.8355 16.3917 17.8355C16.8638 17.842 17.3191 18.0119 17.68 18.3163C18.0409 18.6208 18.2851 19.0409 18.3711 19.5052C18.4571 19.9694 18.3795 20.4491 18.1515 20.8626C17.9236 21.2761 17.5593 21.5978 17.1209 21.773V22.0646C17.1209 22.258 17.044 22.4435 16.9073 22.5802C16.7705 22.717 16.5851 22.7938 16.3917 22.7938C16.1983 22.7938 16.0128 22.717 15.8761 22.5802C15.7393 22.4435 15.6625 22.258 15.6625 22.0646V21.773C15.3965 21.6715 15.1535 21.5178 14.9479 21.3209C14.7662 21.1368 14.6225 20.9188 14.525 20.6792C14.4792 20.5097 14.4962 20.3293 14.5728 20.1713C14.6493 20.0132 14.7803 19.8881 14.9417 19.8189C15.1032 19.7497 15.2841 19.7411 15.4514 19.7947C15.6186 19.8483 15.7609 19.9604 15.8521 20.1105L15.9834 20.3C16.0889 20.4024 16.2301 20.4599 16.3771 20.4605C16.5254 20.4566 16.6663 20.3951 16.7699 20.2888C16.8734 20.1825 16.9313 20.0401 16.9313 19.8917C16.9332 19.8158 16.9199 19.7403 16.8922 19.6696C16.8645 19.5989 16.8229 19.5344 16.7699 19.4801C16.7169 19.4257 16.6536 19.3825 16.5836 19.353C16.5136 19.3235 16.4385 19.3083 16.3625 19.3084C15.8872 19.3111 15.426 19.1467 15.0595 18.8439C14.6931 18.5411 14.4447 18.1191 14.3579 17.6518C14.271 17.1844 14.3511 16.7014 14.5843 16.2871C14.8174 15.8729 15.1888 15.5537 15.6334 15.3855L15.6479 15.3709Z" fill="#EAE2F9"/>
<path fill-rule="evenodd" clip-rule="evenodd" d="M20.5917 22.2542H28.1313C28.3247 22.2542 28.5101 22.1773 28.6469 22.0406C28.7836 21.9039 28.8605 21.7184 28.8605 21.525C28.8605 21.3316 28.7836 21.1462 28.6469 21.0094C28.5101 20.8727 28.3247 20.7958 28.1313 20.7958H20.5917C20.3983 20.7958 20.2129 20.8727 20.0761 21.0094C19.9394 21.1462 19.8625 21.3316 19.8625 21.525C19.8625 21.7184 19.9394 21.9039 20.0761 22.0406C20.2129 22.1773 20.3983 22.2542 20.5917 22.2542Z" fill="#EAE2F9"/>
<path fill-rule="evenodd" clip-rule="evenodd" d="M20.5917 19.2938H28.1313C28.3247 19.2938 28.5101 19.217 28.6469 19.0802C28.7836 18.9435 28.8605 18.758 28.8605 18.5646C28.8605 18.3712 28.7836 18.1858 28.6469 18.049C28.5101 17.9123 28.3247 17.8354 28.1313 17.8354H20.5917C20.3983 17.8354 20.2129 17.9123 20.0761 18.049C19.9394 18.1858 19.8625 18.3712 19.8625 18.5646C19.8625 18.758 19.9394 18.9435 20.0761 19.0802C20.2129 19.217 20.3983 19.2938 20.5917 19.2938Z" fill="#EAE2F9"/>
<path fill-rule="evenodd" clip-rule="evenodd" d="M20.5917 16.3479H28.1313C28.3247 16.3479 28.5101 16.2711 28.6469 16.1344C28.7836 15.9976 28.8605 15.8121 28.8605 15.6188C28.8605 15.4254 28.7836 15.2399 28.6469 15.1032C28.5101 14.9664 28.3247 14.8896 28.1313 14.8896H20.5917C20.3983 14.8896 20.2129 14.9664 20.0761 15.1032C19.9394 15.2399 19.8625 15.4254 19.8625 15.6188C19.8625 15.8121 19.9394 15.9976 20.0761 16.1344C20.2129 16.2711 20.3983 16.3479 20.5917 16.3479Z" fill="#EAE2F9"/>
</svg>
