<svg width="35" height="36" viewBox="0 0 35 36" fill="none" xmlns="http://www.w3.org/2000/svg">
<path d="M28.6377 6.62325H20.4638V3.59687C20.4638 3.50147 20.4269 3.40999 20.3613 3.34253C20.2957 3.27508 20.2066 3.23718 20.1138 3.23718H3.50002C3.4072 3.23718 3.31817 3.27508 3.25254 3.34253C3.1869 3.40999 3.15002 3.50147 3.15002 3.59687C3.15002 3.60118 3.15002 3.60478 3.15002 3.6091V26.0411C3.15141 26.9077 3.48422 27.739 4.07666 28.3556C4.6691 28.9722 5.47368 29.3248 6.31682 29.3373C6.32102 29.3375 6.32523 29.3375 6.32942 29.3373H6.34202C6.34902 29.3373 6.35532 29.3373 6.36232 29.3373C6.36932 29.3373 6.37562 29.3373 6.38262 29.3373H14.5376V32.3716C14.5376 32.467 14.5745 32.5585 14.6401 32.6259C14.7058 32.6934 14.7948 32.7313 14.8876 32.7313H31.5C31.5928 32.7313 31.6819 32.6934 31.7475 32.6259C31.8131 32.5585 31.85 32.467 31.85 32.3716V9.9273C31.8487 9.05192 31.51 8.21273 30.9079 7.59347C30.3058 6.97421 29.4895 6.62534 28.6377 6.62325Z" fill="#231F20"/>
<path d="M3.84998 26.0411V3.95654H19.7638V6.62324H12.3081C12.2846 6.62301 12.2611 6.62543 12.2381 6.63043C12.1681 6.6254 12.0981 6.62324 12.0281 6.62324C11.1764 6.62514 10.3601 6.97373 9.75794 7.5927C9.15576 8.21167 8.81674 9.0506 8.81508 9.92586C8.81508 9.92586 8.87528 25.9433 8.87528 26.044C8.87438 26.7247 8.61212 27.3774 8.14549 27.8605C7.67886 28.3435 7.04558 28.6178 6.38328 28.6237H6.34198C5.67925 28.6176 5.04565 28.3429 4.57898 27.8593C4.11231 27.3756 3.85032 26.7222 3.84998 26.0411Z" fill="#FF8E5A"/>
<path d="M8.34265 28.6236C8.72477 28.3177 9.03422 27.9264 9.24765 27.4796C9.46108 27.0327 9.5729 26.5418 9.57465 26.044C9.57465 25.972 9.51445 9.92294 9.51445 9.92438C9.52545 9.24701 9.79502 8.6012 10.265 8.12618C10.735 7.65115 11.3679 7.38495 12.0271 7.38495C12.6863 7.38495 13.3192 7.65115 13.7892 8.12618C14.2592 8.6012 14.5287 9.24701 14.5398 9.92438V28.6236H8.34265Z" fill="#FFBA50"/>
<path d="M31.15 32.0119H15.2376V9.92727C15.2375 9.43085 15.1284 8.94086 14.9183 8.49382C14.7083 8.04679 14.4028 7.65425 14.0245 7.34546H28.6377C29.3038 7.34622 29.9424 7.61848 30.4134 8.10249C30.8844 8.58651 31.1493 9.24276 31.15 9.92727V32.0119Z" fill="white"/>
<path d="M28.791 26.7885H17.5952C17.5024 26.7885 17.4134 26.8264 17.3478 26.8939C17.2821 26.9613 17.2452 27.0528 17.2452 27.1482C17.2452 27.2436 17.2821 27.3351 17.3478 27.4025C17.4134 27.47 17.5024 27.5079 17.5952 27.5079H28.791C28.8839 27.5079 28.9729 27.47 29.0385 27.4025C29.1042 27.3351 29.141 27.2436 29.141 27.1482C29.141 27.0528 29.1042 26.9613 29.0385 26.8939C28.9729 26.8264 28.8839 26.7885 28.791 26.7885Z" fill="#231F20"/>
<path d="M28.791 22.7982H17.5952C17.5024 22.7982 17.4134 22.8361 17.3478 22.9036C17.2821 22.971 17.2452 23.0625 17.2452 23.1579C17.2452 23.2533 17.2821 23.3448 17.3478 23.4122C17.4134 23.4797 17.5024 23.5176 17.5952 23.5176H28.791C28.8839 23.5176 28.9729 23.4797 29.0385 23.4122C29.1042 23.3448 29.141 23.2533 29.141 23.1579C29.141 23.0625 29.1042 22.971 29.0385 22.9036C28.9729 22.8361 28.8839 22.7982 28.791 22.7982Z" fill="#231F20"/>
<path d="M28.791 18.8158H17.5952C17.5024 18.8158 17.4134 18.8537 17.3478 18.9211C17.2821 18.9886 17.2452 19.0801 17.2452 19.1755C17.2452 19.2709 17.2821 19.3624 17.3478 19.4298C17.4134 19.4973 17.5024 19.5352 17.5952 19.5352H28.791C28.8839 19.5352 28.9729 19.4973 29.0385 19.4298C29.1042 19.3624 29.141 19.2709 29.141 19.1755C29.141 19.0801 29.1042 18.9886 29.0385 18.9211C28.9729 18.8537 28.8839 18.8158 28.791 18.8158Z" fill="#231F20"/>
<path d="M28.791 14.8571H17.5952C17.5024 14.8571 17.4134 14.895 17.3478 14.9625C17.2821 15.0299 17.2452 15.1214 17.2452 15.2168C17.2452 15.3122 17.2821 15.4037 17.3478 15.4711C17.4134 15.5386 17.5024 15.5765 17.5952 15.5765H28.791C28.8839 15.5765 28.9729 15.5386 29.0385 15.4711C29.1042 15.4037 29.141 15.3122 29.141 15.2168C29.141 15.1214 29.1042 15.0299 29.0385 14.9625C28.9729 14.895 28.8839 14.8571 28.791 14.8571Z" fill="#231F20"/>
<path d="M28.791 10.8668H17.5952C17.5024 10.8668 17.4134 10.9047 17.3478 10.9721C17.2821 11.0396 17.2452 11.131 17.2452 11.2264C17.2452 11.3218 17.2821 11.4133 17.3478 11.4808C17.4134 11.5482 17.5024 11.5861 17.5952 11.5861H28.791C28.8839 11.5861 28.9729 11.5482 29.0385 11.4808C29.1042 11.4133 29.141 11.3218 29.141 11.2264C29.141 11.131 29.1042 11.0396 29.0385 10.9721C28.9729 10.9047 28.8839 10.8668 28.791 10.8668Z" fill="#231F20"/>
</svg>
