<?xml version="1.0" encoding="utf-8"?>
<!-- Generator: Adobe Illustrator 29.3.1, SVG Export Plug-In . SVG Version: 9.03 Build 55982)  -->
<svg version="1.0" id="Layer_1" xmlns="http://www.w3.org/2000/svg" xmlns:xlink="http://www.w3.org/1999/xlink" x="0px" y="0px"
	 viewBox="0 0 1080 1080" enable-background="new 0 0 1080 1080" xml:space="preserve">
<path fill="#2563EB" d="M905.7,588c1.3-10.2,7.4-19.3,16.5-24.2c15.2-8.1,23.6-16.2,23.6-23.8c0-7.6-8.4-15.7-23.6-23.8
	c-9.1-4.8-15.2-13.9-16.5-24.2l0-0.3c-1.3-10.2,2.2-20.5,9.7-27.5c12.6-11.8,18.6-21.8,16.6-29.1c-2-7.3-12.1-13-28.9-16.9
	c-10-2.3-18.2-9.5-22.1-19c-0.1-0.2-0.1-0.3-0.2-0.5c-4-9.5-3.2-20.4,2.2-29.1c9.1-14.6,12.2-25.8,8.4-32.3
	c-3.8-6.6-15.1-9.5-32.4-8.9c-10.3,0.4-20.1-4.5-26.3-12.6c-0.1-0.1-0.1-0.2-0.2-0.3c-6.3-8.2-8.4-18.9-5.4-28.7
	c5-16.5,5.2-28.2-0.2-33.5c-5.4-5.4-17-5.2-33.5-0.2c-9.8,3-20.6,0.9-28.7-5.4l-0.3-0.2c-8.2-6.3-13-16.1-12.6-26.3
	c0.6-17.2-2.3-28.6-8.9-32.4c-6.6-3.8-17.8-0.7-32.3,8.4c-8.7,5.5-19.6,6.2-29.1,2.2c-0.2-0.1-0.3-0.1-0.5-0.2
	c-9.5-3.9-16.7-12.1-19-22.1C658,160.1,652.4,150,645,148c-7.4-2-17.4,4-29.1,16.6c-7,7.5-17.3,11-27.5,9.7l-0.3,0
	c-10.2-1.3-19.3-7.4-24.2-16.5c-8.1-15.2-16.2-23.6-23.8-23.6s-15.7,8.4-23.8,23.6c-4.8,9.1-13.9,15.2-24.2,16.5l-0.3,0
	c-10.2,1.3-20.5-2.2-27.5-9.7C452.4,152,442.3,146.1,435,148c-7.3,2-13,12.1-16.9,28.9c-2.3,10-9.5,18.2-19,22.1
	c-0.2,0.1-0.3,0.1-0.5,0.2c-9.5,4-20.4,3.2-29.1-2.2c-14.6-9.1-25.8-12.2-32.3-8.4c-6.6,3.8-9.5,15.1-8.9,32.4
	c0.4,10.3-4.5,20.1-12.6,26.3c-0.1,0.1-0.2,0.1-0.3,0.2c-8.2,6.3-18.9,8.4-28.7,5.4c-16.5-5-28.2-5.2-33.5,0.2
	c-5.4,5.4-5.2,17-0.2,33.5c3,9.8,0.9,20.6-5.4,28.7l-0.2,0.3c-6.3,8.2-16.1,13-26.3,12.6c-17.2-0.6-28.6,2.3-32.4,8.9
	c-3.8,6.6-0.7,17.8,8.4,32.3c5.5,8.7,6.2,19.6,2.2,29.1c-0.1,0.2-0.1,0.3-0.2,0.5c-3.9,9.5-12.1,16.7-22.1,19
	C160.1,422,150,427.6,148,435c-2,7.4,4,17.4,16.6,29.1c7.5,7,11,17.3,9.7,27.5c0,0.1,0,0.2,0,0.3c-1.3,10.2-7.4,19.3-16.5,24.2
	c-15.2,8.1-23.6,16.2-23.6,23.8s8.4,15.7,23.6,23.8c9.1,4.8,15.2,13.9,16.5,24.2l0,0.3c1.3,10.2-2.2,20.5-9.7,27.5
	C152,627.6,146.1,637.7,148,645c2,7.3,12.1,13,28.9,16.9c10,2.3,18.2,9.5,22.1,19c0.1,0.2,0.1,0.3,0.2,0.5c4,9.5,3.2,20.4-2.2,29.1
	c-9.1,14.6-12.2,25.8-8.4,32.3c3.8,6.6,15.1,9.5,32.4,8.9c10.3-0.4,20.1,4.5,26.3,12.6c0.1,0.1,0.1,0.2,0.2,0.3
	c6.3,8.2,8.4,18.9,5.4,28.7c-5,16.5-5.2,28.2,0.2,33.5c5.4,5.4,17,5.2,33.5,0.2c9.8-3,20.6-0.9,28.7,5.4c0.1,0.1,0.2,0.1,0.3,0.2
	c8.2,6.3,13,16.1,12.6,26.3c-0.6,17.2,2.3,28.6,8.9,32.4c6.6,3.8,17.8,0.7,32.3-8.4c8.7-5.5,19.6-6.2,29.1-2.2
	c0.2,0.1,0.3,0.1,0.5,0.2c9.5,3.9,16.7,12.1,19,22.1c3.9,16.7,9.6,26.9,16.9,28.9c7.4,2,17.4-4,29.1-16.6c7-7.5,17.3-11,27.5-9.7
	c0.1,0,0.2,0,0.3,0c10.2,1.3,19.3,7.4,24.2,16.5c8.1,15.2,16.2,23.6,23.8,23.6s15.7-8.4,23.8-23.6c4.8-9.1,13.9-15.2,24.2-16.5
	c0.1,0,0.2,0,0.3,0c10.2-1.3,20.5,2.2,27.5,9.7c11.8,12.6,21.8,18.6,29.1,16.6c7.3-2,13-12.1,16.9-28.9c2.3-10,9.5-18.2,19-22.1
	c0.2-0.1,0.3-0.1,0.5-0.2c9.5-4,20.4-3.2,29.1,2.2c14.6,9.1,25.8,12.2,32.3,8.4c6.6-3.8,9.5-15.1,8.9-32.4
	c-0.4-10.3,4.5-20.1,12.6-26.3l0.3-0.2c8.2-6.3,18.9-8.4,28.7-5.4c16.5,5,28.2,5.2,33.5-0.2s5.2-17,0.2-33.5
	c-3-9.8-0.9-20.6,5.4-28.7c0.1-0.1,0.1-0.2,0.2-0.3c6.3-8.2,16.1-13,26.3-12.6c17.2,0.6,28.6-2.3,32.4-8.9
	c3.8-6.6,0.7-17.8-8.4-32.3c-5.5-8.7-6.2-19.6-2.2-29.1c0.1-0.2,0.1-0.3,0.2-0.5c3.9-9.5,12.1-16.7,22.1-19
	c16.7-3.9,26.9-9.6,28.9-16.9c2-7.4-4-17.4-16.6-29.1c-7.5-7-11-17.3-9.7-27.5C905.7,588.2,905.7,588.1,905.7,588L905.7,588z"/>
</svg>
