<?xml version="1.0" encoding="utf-8"?>
<!-- Generator: Adobe Illustrator 29.3.1, SVG Export Plug-In . SVG Version: 9.03 Build 55982)  -->
<svg version="1.0" id="Layer_1" xmlns="http://www.w3.org/2000/svg" xmlns:xlink="http://www.w3.org/1999/xlink" x="0px" y="0px"
	 viewBox="0 0 1080 1080" enable-background="new 0 0 1080 1080" xml:space="preserve">
<path fill="#2563EB" d="M745.7,540c58.9-22.9,114.4-56.7,145.5-87.8c72.7-72.7,72.7-190.7,0-263.4c-72.7-72.7-190.7-72.7-263.4,0
	c-31.1,31.1-64.9,86.5-87.8,145.5c-22.9-58.9-56.7-114.4-87.8-145.5c-72.7-72.7-190.7-72.7-263.4,0s-72.7,190.7,0,263.4
	c31.1,31.1,86.5,64.9,145.5,87.8c-58.9,22.9-114.4,56.7-145.5,87.8c-72.7,72.7-72.7,190.7,0,263.4s190.7,72.7,263.4,0
	c31.1-31.1,64.9-86.5,87.8-145.5c22.9,58.9,56.7,114.4,87.8,145.5c72.7,72.7,190.7,72.7,263.4,0c72.7-72.7,72.7-190.7,0-263.4
	C860.1,596.7,804.7,562.9,745.7,540z"/>
</svg>
