<?xml version="1.0" encoding="utf-8"?>
<!-- Generator: Adobe Illustrator 29.3.1, SVG Export Plug-In . SVG Version: 9.03 Build 55982)  -->
<svg version="1.0" id="Layer_1" xmlns="http://www.w3.org/2000/svg" xmlns:xlink="http://www.w3.org/1999/xlink" x="0px" y="0px"
	 viewBox="0 0 1080 1080" enable-background="new 0 0 1080 1080" xml:space="preserve">
<path fill="#2563EB" d="M864.6,650.7c50.9,30.8,81.2,69.1,81.2,110.7c0,101.9-181.7,184.4-405.8,184.4s-405.8-82.6-405.8-184.4
	c0-41.5,30.2-79.8,81.2-110.7c-50.9-30.8-81.2-69.1-81.2-110.7s30.2-79.8,81.2-110.7c-50.9-30.8-81.2-69.1-81.2-110.7
	c0-101.9,181.7-184.4,405.8-184.4s405.8,82.6,405.8,184.4c0,41.5-30.2,79.8-81.2,110.7c50.9,30.8,81.2,69.1,81.2,110.7
	S915.6,619.8,864.6,650.7z"/>
</svg>
