<?xml version="1.0" encoding="utf-8"?>
<!-- Generator: Adobe Illustrator 29.3.1, SVG Export Plug-In . SVG Version: 9.03 Build 55982)  -->
<svg version="1.0" id="Layer_1" xmlns="http://www.w3.org/2000/svg" xmlns:xlink="http://www.w3.org/1999/xlink" x="0px" y="0px"
	 viewBox="0 0 1080 1080" enable-background="new 0 0 1080 1080" xml:space="preserve">
<path fill="#2563EB" d="M945.8,540c0-21.4-65.6-47-166.5-64.1c78.9-65.2,122.9-120.2,112.2-138.8c-10.7-18.5-80.3-7.9-176.3,27.8
	c35.7-95.9,46.3-165.6,27.8-176.3c-18.5-10.7-73.5,33.3-138.8,112.2C587,199.8,561.4,134.2,540,134.2c-21.4,0-47,65.6-64.1,166.5
	c-65.2-78.9-120.2-122.9-138.8-112.2c-18.5,10.7-7.9,80.3,27.8,176.3c-95.9-35.7-165.6-46.3-176.3-27.8
	c-10.7,18.5,33.3,73.5,112.2,138.8C199.8,493,134.2,518.6,134.2,540s65.6,47,166.5,64.1c-78.9,65.2-122.9,120.2-112.2,138.8
	c10.7,18.5,80.3,7.9,176.3-27.8c-35.7,95.9-46.3,165.6-27.8,176.3c18.5,10.7,73.5-33.3,138.8-112.2C493,880.2,518.6,945.8,540,945.8
	c21.4,0,47-65.6,64.1-166.5c65.2,78.9,120.2,122.9,138.8,112.2c18.5-10.7,7.9-80.3-27.8-176.3c95.9,35.7,165.6,46.3,176.3,27.8
	c10.7-18.5-33.3-73.5-112.2-138.8C880.2,587,945.8,561.4,945.8,540z"/>
</svg>
