<?xml version="1.0" encoding="utf-8"?>
<!-- Generator: Adobe Illustrator 29.3.1, SVG Export Plug-In . SVG Version: 9.03 Build 55982)  -->
<svg version="1.0" id="Layer_1" xmlns="http://www.w3.org/2000/svg" xmlns:xlink="http://www.w3.org/1999/xlink" x="0px" y="0px"
	 viewBox="0 0 1080 1080" enable-background="new 0 0 1080 1080" xml:space="preserve">
<g>
	<path fill="#2563EB" d="M787,218.1c-12.4-9.6-25.4-18.4-38.9-26.5v696.8c13.5-8.1,26.5-17,38.9-26.5V218.1z"/>
	<path fill="#2563EB" d="M596.4,941.8c13.2-1.8,26.2-4.3,38.9-7.4V145.6c-12.8-3.1-25.7-5.5-38.9-7.4V941.8L596.4,941.8z"/>
	<path fill="#2563EB" d="M407.8,156.4c-13.3,4.6-26.3,9.8-38.9,15.7v735.9c12.6,5.9,25.6,11.1,38.9,15.7V156.4z"/>
	<path fill="#2563EB" d="M899.7,727.8c29.4-56.2,46.1-120,46.1-187.8s-16.7-131.7-46.1-187.8V727.8z"/>
	<path fill="#2563EB" d="M711.1,172.1c-12.6-5.9-25.6-11.1-38.9-15.7v767.3c13.3-4.6,26.3-9.8,38.9-15.7V172.1z"/>
	<path fill="#2563EB" d="M862.8,294.2c-11.9-15.6-24.9-30.3-38.9-44.1v579.8c14-13.7,27-28.4,38.9-44.1V294.2z"/>
	<path fill="#2563EB" d="M256.2,250.1c-14,13.7-27,28.4-38.9,44.1v491.6c11.9,15.6,24.9,30.3,38.9,44.1V250.1z"/>
	<path fill="#2563EB" d="M559.5,134.7c-6.5-0.3-12.9-0.5-19.5-0.5s-13,0.2-19.5,0.5v810.6c6.5,0.3,12.9,0.5,19.5,0.5
		s13-0.2,19.5-0.5V134.7z"/>
	<path fill="#2563EB" d="M180.3,352.2c-29.4,56.2-46.1,120-46.1,187.8s16.7,131.7,46.1,187.8V352.2z"/>
	<path fill="#2563EB" d="M293,861.9c12.4,9.6,25.4,18.4,38.9,26.5V191.6c-13.5,8.1-26.5,17-38.9,26.5V861.9z"/>
	<path fill="#2563EB" d="M483.6,138.2c-13.2,1.8-26.2,4.3-38.9,7.4v788.8c12.8,3.1,25.7,5.5,38.9,7.4V138.2z"/>
</g>
</svg>
